<mxfile host="app.diagrams.net" agent="Mozilla/5.0 (Windows NT 10.0; Win64; x64) AppleWebKit/537.36 (KHTML, like Gecko) Chrome/138.0.0.0 Safari/537.36 Edg/138.0.0.0" version="28.0.7">
  <diagram name="Page-1" id="mfauMYVUofDUMACnlZRR">
    <mxGraphModel dx="1034" dy="570" grid="1" gridSize="10" guides="1" tooltips="1" connect="1" arrows="1" fold="1" page="1" pageScale="1" pageWidth="850" pageHeight="1100" math="0" shadow="0">
      <root>
        <mxCell id="0" />
        <mxCell id="1" parent="0" />
        <mxCell id="2D5cz5ACQ4pg5pln9Am2-1" value="PLAN" style="ellipse;whiteSpace=wrap;html=1;" vertex="1" parent="1">
          <mxGeometry x="365" y="10" width="120" height="80" as="geometry" />
        </mxCell>
        <mxCell id="2D5cz5ACQ4pg5pln9Am2-2" value="DEVELOP" style="ellipse;whiteSpace=wrap;html=1;" vertex="1" parent="1">
          <mxGeometry x="365" y="140" width="120" height="80" as="geometry" />
        </mxCell>
        <mxCell id="2D5cz5ACQ4pg5pln9Am2-3" value="BUILD" style="ellipse;whiteSpace=wrap;html=1;" vertex="1" parent="1">
          <mxGeometry x="365" y="260" width="120" height="80" as="geometry" />
        </mxCell>
        <mxCell id="2D5cz5ACQ4pg5pln9Am2-4" value="TEST" style="ellipse;whiteSpace=wrap;html=1;" vertex="1" parent="1">
          <mxGeometry x="365" y="370" width="120" height="80" as="geometry" />
        </mxCell>
        <mxCell id="2D5cz5ACQ4pg5pln9Am2-5" value="RELEASE" style="ellipse;whiteSpace=wrap;html=1;" vertex="1" parent="1">
          <mxGeometry x="365" y="500" width="120" height="80" as="geometry" />
        </mxCell>
        <mxCell id="2D5cz5ACQ4pg5pln9Am2-6" value="DEPLOY" style="ellipse;whiteSpace=wrap;html=1;" vertex="1" parent="1">
          <mxGeometry x="365" y="640" width="120" height="80" as="geometry" />
        </mxCell>
        <mxCell id="2D5cz5ACQ4pg5pln9Am2-7" value="OPERATER" style="ellipse;whiteSpace=wrap;html=1;" vertex="1" parent="1">
          <mxGeometry x="370" y="760" width="120" height="80" as="geometry" />
        </mxCell>
        <mxCell id="2D5cz5ACQ4pg5pln9Am2-8" value="MAINTAIN" style="ellipse;whiteSpace=wrap;html=1;" vertex="1" parent="1">
          <mxGeometry x="370" y="890" width="120" height="80" as="geometry" />
        </mxCell>
      </root>
    </mxGraphModel>
  </diagram>
</mxfile>
